<svg width="41" height="39" viewBox="0 0 41 39" fill="none" xmlns="http://www.w3.org/2000/svg">
<path fill-rule="evenodd" clip-rule="evenodd" d="M23.9824 6.0169C20.8858 6.46062 18.2321 8.39018 16.8772 11.1833C16.3505 12.2691 16.089 13.232 15.9645 14.5435C15.8179 16.0874 16.171 17.882 16.9117 19.3581C17.4191 20.369 17.9649 21.1115 18.7804 21.9001C20.0913 23.1678 21.5718 23.9529 23.4042 24.352C23.8888 24.4576 24.1295 24.4738 25.2261 24.4748C26.342 24.4759 26.557 24.4613 27.0664 24.35C27.9371 24.1598 28.5524 23.9399 29.4012 23.5153C31.1843 22.6234 32.6331 21.1795 33.519 19.4116C34.6375 17.1797 34.8232 14.6465 34.0405 12.2996C33.2463 9.91822 31.4846 7.93174 29.2089 6.8516C28.3217 6.43046 27.7626 6.25054 26.7653 6.06525C26.1409 5.94928 24.6369 5.92313 23.9824 6.0169ZM17.0605 23.5094C16.1157 24.078 15.1617 24.7774 14.4312 25.4371L14.1291 25.7099L16.0516 27.6346L17.974 29.5593H14.97H11.966L11.9935 29.7654C12.198 31.3034 12.4855 32.3231 13.0097 33.3707C13.4358 34.2225 13.8938 34.8464 14.6502 35.6058C15.3052 36.2635 15.7381 36.6034 17.3513 37.7266L17.7718 38.0195H29.2587H40.7455L40.7439 37.0443C40.734 31.0727 38.4019 26.6537 33.6964 23.6903C32.7887 23.1187 32.918 23.1272 32.4455 23.6069C30.3818 25.702 27.6034 26.756 24.5932 26.5857C22.1234 26.446 19.8935 25.4489 18.0845 23.6754L17.59 23.1907L17.0605 23.5094Z" fill="url(#paint0_radial_423_4340)"/>
<path fill-rule="evenodd" clip-rule="evenodd" d="M6.76728 22.8459C6.16859 23.4308 1.56129 27.8328 1.1913 28.1733L0.999023 28.3503L2.84074 28.3505L4.68247 28.3508L4.77443 28.8864C5.00098 30.2059 5.54243 31.6221 6.25824 32.7673C7.01427 33.9769 8.06382 35.0415 9.3548 35.9082C10.046 36.3723 11.4635 37.0681 12.3158 37.3618C12.9529 37.5813 14.6504 38.038 14.6884 38C14.6986 37.9897 14.4779 37.8069 14.198 37.5935C13.9182 37.3802 13.4036 36.9129 13.0547 36.5551C11.1567 34.6089 10.2957 32.4045 10.1131 29.0237L10.0768 28.3508L11.9654 28.3498L13.854 28.3488L13.4969 28.0058C12.944 27.4747 10.9473 25.5644 9.12962 23.8276C8.22324 22.9615 7.45689 22.2534 7.42662 22.2542C7.39635 22.2549 7.09964 22.5211 6.76728 22.8459Z" fill="url(#paint1_linear_423_4340)"/>
<path fill-rule="evenodd" clip-rule="evenodd" d="M11.712 0.44339C8.5816 0.837718 6.06544 3.1543 5.3872 6.26652C5.24569 6.91581 5.24233 8.51746 5.38116 9.1612C6.01599 12.1054 8.25913 14.3301 11.1981 14.9305C11.7055 15.0342 13.3248 15.0567 13.7714 14.9664C14.0172 14.9167 14.0187 14.915 14.0322 14.6704C14.0397 14.5352 14.0723 14.1773 14.1047 13.8751C14.4554 10.6067 16.4828 7.60454 19.1689 6.37623C19.4635 6.24147 19.7045 6.10018 19.7045 6.06222C19.7045 5.88011 19.3469 4.91071 19.103 4.43167C18.066 2.39487 16.1524 0.95138 13.9261 0.526562C13.3694 0.420371 12.2336 0.377632 11.712 0.44339ZM6.38846 14.0844C5.19696 14.834 4.52207 15.3611 3.79703 16.1085C1.93476 18.0283 0.811711 20.3495 0.289437 23.3583L0.254883 23.5573L1.85648 23.598L3.45808 23.6386L5.69945 21.3977C7.76147 19.3362 7.94885 19.1631 8.04043 19.2353C8.0952 19.2784 8.90204 20.0763 9.83348 21.0083C10.7649 21.9402 11.5354 22.6942 11.5457 22.6838C11.556 22.6734 11.6422 22.566 11.7373 22.4451C12.3162 21.7091 13.5187 20.6383 14.4307 20.0467C15.098 19.6137 15.1367 19.5957 15.2308 19.6738C15.29 19.723 15.3096 19.7233 15.3096 19.6751C15.3096 19.5963 14.5893 16.5199 14.5643 16.492C14.5544 16.4811 14.3164 16.5174 14.0353 16.5729C13.276 16.7227 11.7469 16.7103 10.9869 16.5482C9.4976 16.2308 8.128 15.5159 7.03148 14.4837C6.75614 14.2245 6.52223 14.0139 6.51168 14.0157C6.50108 14.0175 6.44565 14.0484 6.38846 14.0844Z" fill="url(#paint2_linear_423_4340)"/>
<defs>
<radialGradient id="paint0_radial_423_4340" cx="0" cy="0" r="1" gradientUnits="userSpaceOnUse" gradientTransform="translate(26.3556 21.9897) rotate(27.0223) scale(35.3727 31.7539)">
<stop stop-color="white" stop-opacity="0.96"/>
<stop offset="1" stop-color="white" stop-opacity="0.88"/>
</radialGradient>
<linearGradient id="paint1_linear_423_4340" x1="7.84386" y1="22.2542" x2="12.9407" y2="38.0609" gradientUnits="userSpaceOnUse">
<stop stop-color="#C8D0FF"/>
<stop offset="1" stop-color="white"/>
</linearGradient>
<linearGradient id="paint2_linear_423_4340" x1="9.92915" y1="1.92326" x2="9.97969" y2="23.6386" gradientUnits="userSpaceOnUse">
<stop stop-color="#EBEEFF"/>
<stop offset="1" stop-color="#94A3FF"/>
</linearGradient>
</defs>
</svg>
